<?xml version="1.0" encoding="utf-8"?>
<!-- Generator: Adobe Illustrator 22.1.0, SVG Export Plug-In . SVG Version: 6.00 Build 0)  -->
<svg version="1.1" xmlns="http://www.w3.org/2000/svg" xmlns:xlink="http://www.w3.org/1999/xlink" x="0px" y="0px"
	 viewBox="0 0 579 579" style="enable-background:new 0 0 579 579;" xml:space="preserve">
<style type="text/css">
	.st0{clip-path:url(#SVGID_2_);fill:#FFFFFF;}
	.st1{clip-path:url(#SVGID_2_);fill:#4BE14E;}
</style>
<g id="Layer_2">
</g>
<g id="Layer_1">
</g>
<g id="Layer_3">
	<g>
		<defs>
			<circle id="SVGID_1_" cx="289.5" cy="289.5" r="289.5"/>
		</defs>
		<clipPath id="SVGID_2_">
			<use xlink:href="#SVGID_1_"  style="overflow:visible;"/>
		</clipPath>
		<rect x="64.9" y="43.5" class="st0" width="444" height="489"/>
		<path class="st1" d="M289.7-72.8C89.6-72.8-72.6,89.4-72.6,289.5S89.6,651.8,289.7,651.8s362.3-162.2,362.3-362.3
			S489.8-72.8,289.7-72.8z M279.7,511.5h-148v-148h148V511.5z M279.7,342.5h-148v-148h148V342.5z M447.7,511.5h-148v-148h148V511.5z
			 M295.7,347.5v-74h74v74H295.7z M456.7,334.5h-72v-76h-76v-72h148V334.5z M293.7,174.5v10H79.1l84.6-43.2V77.5h77v22.7l49-22.7V67
			l210.2,107.5H293.7z"/>
	</g>
</g>
</svg>
